<?xml version="1.0" encoding="UTF-8" standalone="no"?>
<!-- Created with Inkscape (http://www.inkscape.org/) -->

<svg
   xmlns:dc="http://purl.org/dc/elements/1.1/"
   xmlns:cc="http://creativecommons.org/ns#"
   xmlns:rdf="http://www.w3.org/1999/02/22-rdf-syntax-ns#"
   xmlns:svg="http://www.w3.org/2000/svg"
   xmlns="http://www.w3.org/2000/svg"
   xmlns:xlink="http://www.w3.org/1999/xlink"
   version="1.1"
   width="300"
   height="150"
   id="svg2">
  <defs
     id="defs4">
    <linearGradient
       id="linearGradient4578">
      <stop
         id="stop4580"
         style="stop-color:#005d9b;stop-opacity:1"
         offset="0" />
      <stop
         id="stop4582"
         style="stop-color:#005d9b;stop-opacity:0"
         offset="1" />
    </linearGradient>
    <linearGradient
       id="linearGradient4196">
      <stop
         id="stop4198"
         style="stop-color:#000000;stop-opacity:1"
         offset="0" />
      <stop
         id="stop4200"
         style="stop-color:#000000;stop-opacity:0"
         offset="1" />
    </linearGradient>
    <linearGradient
       x1="9.0466783e-06"
       y1="977.36218"
       x2="300.00003"
       y2="977.36218"
       id="linearGradient4206"
       xlink:href="#linearGradient4196"
       gradientUnits="userSpaceOnUse" />
    <linearGradient
       x1="9.0466783e-06"
       y1="977.36218"
       x2="300.00003"
       y2="977.36218"
       id="linearGradient4220"
       xlink:href="#linearGradient4196"
       gradientUnits="userSpaceOnUse" />
    <linearGradient
       x1="9.0466783e-06"
       y1="977.36218"
       x2="300.00003"
       y2="977.36218"
       id="linearGradient4222"
       xlink:href="#linearGradient4196"
       gradientUnits="userSpaceOnUse" />
    <linearGradient
       x1="9.0466783e-06"
       y1="977.36218"
       x2="300.00003"
       y2="977.36218"
       id="linearGradient4258"
       xlink:href="#linearGradient4196"
       gradientUnits="userSpaceOnUse" />
    <linearGradient
       x1="9.0466783e-06"
       y1="977.36218"
       x2="300.00003"
       y2="977.36218"
       id="linearGradient4260"
       xlink:href="#linearGradient4196"
       gradientUnits="userSpaceOnUse" />
    <linearGradient
       x1="9.0466783e-06"
       y1="977.36218"
       x2="300.00003"
       y2="977.36218"
       id="linearGradient4274"
       xlink:href="#linearGradient4196"
       gradientUnits="userSpaceOnUse" />
    <linearGradient
       x1="9.0466783e-06"
       y1="977.36218"
       x2="300.00003"
       y2="977.36218"
       id="linearGradient4276"
       xlink:href="#linearGradient4196"
       gradientUnits="userSpaceOnUse" />
    <linearGradient
       x1="9.0466783e-06"
       y1="977.36218"
       x2="300.00003"
       y2="977.36218"
       id="linearGradient4290"
       xlink:href="#linearGradient4196"
       gradientUnits="userSpaceOnUse" />
    <linearGradient
       x1="9.0466783e-06"
       y1="977.36218"
       x2="300.00003"
       y2="977.36218"
       id="linearGradient4292"
       xlink:href="#linearGradient4196"
       gradientUnits="userSpaceOnUse" />
    <linearGradient
       x1="9.0466783e-06"
       y1="977.36218"
       x2="300.00003"
       y2="977.36218"
       id="linearGradient4367"
       xlink:href="#linearGradient4196"
       gradientUnits="userSpaceOnUse" />
    <linearGradient
       x1="9.0466783e-06"
       y1="977.36218"
       x2="300.00003"
       y2="977.36218"
       id="linearGradient4369"
       xlink:href="#linearGradient4196"
       gradientUnits="userSpaceOnUse" />
    <linearGradient
       x1="9.0466783e-06"
       y1="977.36218"
       x2="300.00003"
       y2="977.36218"
       id="linearGradient4390"
       xlink:href="#linearGradient4196"
       gradientUnits="userSpaceOnUse" />
    <linearGradient
       x1="9.0466783e-06"
       y1="977.36218"
       x2="300.00003"
       y2="977.36218"
       id="linearGradient4392"
       xlink:href="#linearGradient4196"
       gradientUnits="userSpaceOnUse" />
    <linearGradient
       x1="9.0466783e-06"
       y1="977.36218"
       x2="300.00003"
       y2="977.36218"
       id="linearGradient4417"
       xlink:href="#linearGradient4196"
       gradientUnits="userSpaceOnUse" />
    <linearGradient
       x1="9.0466783e-06"
       y1="977.36218"
       x2="300.00003"
       y2="977.36218"
       id="linearGradient4419"
       xlink:href="#linearGradient4196"
       gradientUnits="userSpaceOnUse" />
    <linearGradient
       x1="9.0466783e-06"
       y1="977.36218"
       x2="300.00003"
       y2="977.36218"
       id="linearGradient4442"
       xlink:href="#linearGradient4196"
       gradientUnits="userSpaceOnUse" />
    <linearGradient
       x1="9.0466783e-06"
       y1="977.36218"
       x2="300.00003"
       y2="977.36218"
       id="linearGradient4444"
       xlink:href="#linearGradient4196"
       gradientUnits="userSpaceOnUse" />
    <linearGradient
       x1="9.0466783e-06"
       y1="977.36218"
       x2="300.00003"
       y2="977.36218"
       id="linearGradient4465"
       xlink:href="#linearGradient4196"
       gradientUnits="userSpaceOnUse" />
    <linearGradient
       x1="9.0466783e-06"
       y1="977.36218"
       x2="300.00003"
       y2="977.36218"
       id="linearGradient4475"
       xlink:href="#linearGradient4196"
       gradientUnits="userSpaceOnUse" />
    <linearGradient
       x1="9.0466783e-06"
       y1="977.36218"
       x2="300.00003"
       y2="977.36218"
       id="linearGradient4501"
       xlink:href="#linearGradient4196"
       gradientUnits="userSpaceOnUse" />
    <linearGradient
       x1="9.0466783e-06"
       y1="977.36218"
       x2="300.00003"
       y2="977.36218"
       id="linearGradient4521"
       xlink:href="#linearGradient4196"
       gradientUnits="userSpaceOnUse" />
    <linearGradient
       x1="148.07437"
       y1="903.14093"
       x2="148.07437"
       y2="1051.1106"
       id="linearGradient4584"
       xlink:href="#linearGradient4578"
       gradientUnits="userSpaceOnUse" />
  </defs>
  <metadata
     id="metadata7">
    <rdf:RDF>
      <cc:Work
         rdf:about="">
        <dc:format>image/svg+xml</dc:format>
        <dc:type
           rdf:resource="http://purl.org/dc/dcmitype/StillImage" />
        <dc:title></dc:title>
      </cc:Work>
    </rdf:RDF>
  </metadata>
  <g
     transform="translate(0,-902.36218)"
     id="layer1">
    <g
       id="g4057">
      <g
         transform="translate(12.114197,-65.098937)"
         id="g3888" />
    </g>
    <g
       id="g4541"
       style="fill:url(#linearGradient4584);fill-opacity:1">
      <path
         d="m 30.483871,902.84607 29.032259,0 0,29.03226 -29.032259,0 z"
         id="rect2985-0"
         style="fill:url(#linearGradient4584);fill-opacity:1;stroke:#ffffff;stroke-width:0.96774191;stroke-opacity:1" />
      <path
         d="m 90.483871,902.84607 29.032259,0 0,29.03226 -29.032259,0 z"
         id="rect2985-1"
         style="fill:url(#linearGradient4584);fill-opacity:1;stroke:#ffffff;stroke-width:0.96774191;stroke-opacity:1" />
      <path
         d="m 120.48387,902.84607 29.03226,0 0,29.03226 -29.03226,0 z"
         id="rect2985-9"
         style="fill:url(#linearGradient4584);fill-opacity:1;stroke:#ffffff;stroke-width:0.96774191;stroke-opacity:1" />
      <path
         d="m 180.48387,902.84607 29.03226,0 0,29.03226 -29.03226,0 z"
         id="rect2985-1-9"
         style="fill:url(#linearGradient4584);fill-opacity:1;stroke:#ffffff;stroke-width:0.96774191;stroke-opacity:1" />
      <path
         d="m 210.48387,902.84607 29.03226,0 0,29.03226 -29.03226,0 z"
         id="rect2985-9-5"
         style="fill:url(#linearGradient4584);fill-opacity:1;stroke:#ffffff;stroke-width:0.96774191;stroke-opacity:1" />
      <path
         d="m 270.48389,902.84607 29.03226,0 0,29.03226 -29.03226,0 z"
         id="rect2985-25-2-3"
         style="fill:url(#linearGradient4584);fill-opacity:1;stroke:#ffffff;stroke-width:0.96774191;stroke-opacity:1" />
      <path
         d="m 0.483882,932.84607 29.032259,0 0,29.03229 -29.032259,0 z"
         id="rect2985-04"
         style="fill:url(#linearGradient4584);fill-opacity:1;stroke:#ffffff;stroke-width:0.96774191;stroke-opacity:1" />
      <path
         d="m 30.483883,932.84607 29.032259,0 0,29.03229 -29.032259,0 z"
         id="rect2985-0-2"
         style="fill:url(#linearGradient4584);fill-opacity:1;stroke:#ffffff;stroke-width:0.96774191;stroke-opacity:1" />
      <path
         d="m 90.483879,932.84607 29.032261,0 0,29.03229 -29.032261,0 z"
         id="rect2985-1-6"
         style="fill:url(#linearGradient4584);fill-opacity:1;stroke:#ffffff;stroke-width:0.96774191;stroke-opacity:1" />
      <path
         d="m 120.48388,932.84607 29.03226,0 0,29.03229 -29.03226,0 z"
         id="rect2985-9-50"
         style="fill:url(#linearGradient4584);fill-opacity:1;stroke:#ffffff;stroke-width:0.96774191;stroke-opacity:1" />
      <path
         d="m 150.48389,932.84607 29.03226,0 0,29.03229 -29.03226,0 z"
         id="rect2985-25-1"
         style="fill:url(#linearGradient4584);fill-opacity:1;stroke:#ffffff;stroke-width:0.96774191;stroke-opacity:1" />
      <path
         d="m 180.48389,932.84607 29.03226,0 0,29.03229 -29.03226,0 z"
         id="rect2985-1-9-9"
         style="fill:url(#linearGradient4584);fill-opacity:1;stroke:#ffffff;stroke-width:0.96774191;stroke-opacity:1" />
      <path
         d="m 210.48389,932.84607 29.03226,0 0,29.03229 -29.03226,0 z"
         id="rect2985-9-5-3"
         style="fill:url(#linearGradient4584);fill-opacity:1;stroke:#ffffff;stroke-width:0.96774191;stroke-opacity:1" />
      <path
         d="m 240.48389,932.84607 29.03226,0 0,29.03229 -29.03226,0 z"
         id="rect2985-25-2-33"
         style="fill:url(#linearGradient4584);fill-opacity:1;stroke:#ffffff;stroke-width:0.96774191;stroke-opacity:1" />
      <path
         d="m 270.48389,932.84607 29.03226,0 0,29.03229 -29.03226,0 z"
         id="rect2985-25-2-3-6"
         style="fill:url(#linearGradient4584);fill-opacity:1;stroke:#ffffff;stroke-width:0.96774191;stroke-opacity:1" />
      <path
         d="m 30.48388,962.84607 29.03226,0 0,29.03223 -29.03226,0 z"
         id="rect2985-0-8"
         style="fill:url(#linearGradient4584);fill-opacity:1;stroke:#ffffff;stroke-width:0.96774191;stroke-opacity:1" />
      <path
         d="m 60.48388,962.84607 29.03226,0 0,29.03223 -29.03226,0 z"
         id="rect2985-2-8"
         style="fill:url(#linearGradient4584);fill-opacity:1;stroke:#ffffff;stroke-width:0.96774191;stroke-opacity:1" />
      <path
         d="m 90.48388,962.84607 29.03226,0 0,29.03223 -29.03226,0 z"
         id="rect2985-1-0"
         style="fill:url(#linearGradient4584);fill-opacity:1;stroke:#ffffff;stroke-width:0.96774191;stroke-opacity:1" />
      <path
         d="m 120.48388,962.84607 29.03226,0 0,29.03223 -29.03226,0 z"
         id="rect2985-9-8"
         style="fill:url(#linearGradient4584);fill-opacity:1;stroke:#ffffff;stroke-width:0.96774191;stroke-opacity:1" />
      <path
         d="m 150.4839,962.84607 29.03226,0 0,29.03223 -29.03226,0 z"
         id="rect2985-25-8"
         style="fill:url(#linearGradient4584);fill-opacity:1;stroke:#ffffff;stroke-width:0.96774191;stroke-opacity:1" />
      <path
         d="m 180.4839,962.84607 29.03226,0 0,29.03223 -29.03226,0 z"
         id="rect2985-1-9-91"
         style="fill:url(#linearGradient4584);fill-opacity:1;stroke:#ffffff;stroke-width:0.96774191;stroke-opacity:1" />
      <path
         d="m 240.4839,962.84607 29.03226,0 0,29.03223 -29.03226,0 z"
         id="rect2985-25-2-0"
         style="fill:url(#linearGradient4584);fill-opacity:1;stroke:#ffffff;stroke-width:0.96774191;stroke-opacity:1" />
      <path
         d="m 270.4839,962.84607 29.03226,0 0,29.03223 -29.03226,0 z"
         id="rect2985-25-2-3-7"
         style="fill:url(#linearGradient4584);fill-opacity:1;stroke:#ffffff;stroke-width:0.96774191;stroke-opacity:1" />
      <path
         d="m 0.48388,992.84607 29.03226,0 0,29.03223 -29.03226,0 z"
         id="rect2985-16-0"
         style="fill:url(#linearGradient4584);fill-opacity:1;stroke:#ffffff;stroke-width:0.96774191;stroke-opacity:1" />
      <path
         d="m 30.48388,992.84607 29.03226,0 0,29.03223 -29.03226,0 z"
         id="rect2985-0-8-2"
         style="fill:url(#linearGradient4584);fill-opacity:1;stroke:#ffffff;stroke-width:0.96774191;stroke-opacity:1" />
      <path
         d="m 150.4839,992.84607 29.03226,0 0,29.03223 -29.03226,0 z"
         id="rect2985-25-8-6"
         style="fill:url(#linearGradient4584);fill-opacity:1;stroke:#ffffff;stroke-width:0.96774191;stroke-opacity:1" />
      <path
         d="m 180.4839,992.84607 29.03226,0 0,29.03223 -29.03226,0 z"
         id="rect2985-1-9-91-8"
         style="fill:url(#linearGradient4584);fill-opacity:1;stroke:#ffffff;stroke-width:0.96774191;stroke-opacity:1" />
      <path
         d="m 210.4839,992.84607 29.03226,0 0,29.03223 -29.03226,0 z"
         id="rect2985-9-5-32-6"
         style="fill:url(#linearGradient4584);fill-opacity:1;stroke:#ffffff;stroke-width:0.96774191;stroke-opacity:1" />
      <path
         d="m 240.4839,992.84607 29.03226,0 0,29.03223 -29.03226,0 z"
         id="rect2985-25-2-0-4"
         style="fill:url(#linearGradient4584);fill-opacity:1;stroke:#ffffff;stroke-width:0.96774191;stroke-opacity:1" />
      <path
         d="m 30.48388,1022.8461 29.03226,0 0,29.0322 -29.03226,0 z"
         id="rect2985-0-8-2-4"
         style="fill:url(#linearGradient4584);fill-opacity:1;stroke:#ffffff;stroke-width:0.96774191;stroke-opacity:1" />
      <path
         d="m 60.48388,1022.8461 29.03226,0 0,29.0322 -29.03226,0 z"
         id="rect2985-2-8-1-1"
         style="fill:url(#linearGradient4584);fill-opacity:1;stroke:#ffffff;stroke-width:0.96774191;stroke-opacity:1" />
      <path
         d="m 120.48388,1022.8461 29.03226,0 0,29.0322 -29.03226,0 z"
         id="rect2985-9-8-5-7"
         style="fill:url(#linearGradient4584);fill-opacity:1;stroke:#ffffff;stroke-width:0.96774191;stroke-opacity:1" />
      <path
         d="m 180.4839,1022.8461 29.03226,0 0,29.0322 -29.03226,0 z"
         id="rect2985-1-9-91-8-4"
         style="fill:url(#linearGradient4584);fill-opacity:1;stroke:#ffffff;stroke-width:0.96774191;stroke-opacity:1" />
      <path
         d="m 210.4839,1022.8461 29.03226,0 0,29.0322 -29.03226,0 z"
         id="rect2985-9-5-32-6-6"
         style="fill:url(#linearGradient4584);fill-opacity:1;stroke:#ffffff;stroke-width:0.96774191;stroke-opacity:1" />
      <path
         d="m 270.4839,1022.8461 29.03226,0 0,29.0322 -29.03226,0 z"
         id="rect2985-25-2-3-7-5-3"
         style="fill:url(#linearGradient4584);fill-opacity:1;stroke:#ffffff;stroke-width:0.96774191;stroke-opacity:1" />
    </g>
  </g>
</svg>
